<svg version="1.1" id="Layer_1" xmlns="http://www.w3.org/2000/svg" xmlns:xlink="http://www.w3.org/1999/xlink" x="0px" y="0px"
	 width="100%" viewBox="0 0 300 200" enable-background="new 0 0 300 200" xml:space="preserve">
<path fill="#FFFFFF" opacity="1.000000" stroke="none" 
	d="
M215.000000,201.000000 
	C143.333344,201.000000 72.166687,201.000000 1.000019,201.000000 
	C1.000013,134.333344 1.000013,67.666702 1.000006,1.000037 
	C100.999969,1.000025 200.999939,1.000025 300.999939,1.000012 
	C300.999939,67.666634 300.999939,134.333267 300.999969,200.999939 
	C272.500000,201.000000 244.000000,201.000000 215.000000,201.000000 
M158.500000,177.000000 
	C180.252716,177.000000 202.005417,177.000000 223.781021,177.000000 
	C223.781021,160.024139 223.781021,143.596313 223.781021,126.999275 
	C220.101944,126.999275 216.596924,127.352402 213.187271,126.932114 
	C203.518295,125.740273 198.000000,119.326714 198.000000,109.748230 
	C198.000000,104.918106 198.416245,100.043037 197.900696,95.268578 
	C197.160172,88.410469 200.590256,84.927116 206.138367,81.852974 
	C211.789856,78.721550 217.488358,77.838470 223.635254,79.138641 
	C223.635254,61.140617 223.635254,43.599483 223.635254,26.334522 
	C174.220734,26.334522 125.171227,26.334522 76.303589,26.334522 
	C76.303589,76.718170 76.303589,126.766891 76.303589,177.000000 
	C103.571167,177.000000 130.535583,177.000000 158.500000,177.000000 
M218.848953,83.010681 
	C218.184082,83.007126 217.519196,83.000961 216.854324,83.000420 
	C206.218796,82.991745 203.000015,86.173088 202.999985,96.692635 
	C202.999985,100.349579 202.990677,104.006546 203.001968,107.663452 
	C203.023865,114.751419 207.411850,118.990318 214.722351,119.000000 
	C222.607666,119.010445 226.972366,115.005737 226.997650,107.720093 
	C227.010925,103.896973 226.644547,100.032761 227.079727,96.259789 
	C227.810577,89.923607 224.773895,86.036194 218.848953,83.010681 
M254.999969,92.973305 
	C253.892090,85.494507 249.337952,82.376785 240.432327,83.000427 
	C235.097687,83.374008 231.010223,88.405144 231.001190,94.620461 
	C230.994904,98.939384 230.991150,103.258354 231.001984,107.577255 
	C231.020401,114.929176 235.350876,119.005013 243.121750,118.999992 
	C250.792175,118.995041 254.988495,114.876564 254.998871,107.333763 
	C255.005035,102.848724 255.000000,98.363663 254.999969,92.973305 
M283.000000,97.614487 
	C283.000000,96.950409 283.000122,96.286331 283.000000,95.622253 
	C282.998535,87.134056 279.102356,83.003922 271.092865,83.000000 
	C262.842957,82.995956 259.001770,86.945984 259.000153,95.436493 
	C258.999359,99.586922 258.983887,103.737427 259.003601,107.887764 
	C259.036926,114.905296 263.436676,118.996964 270.922974,119.000000 
	C278.393738,119.003029 282.948120,114.878342 282.996216,108.041794 
	C283.018433,104.887619 283.000000,101.733170 283.000000,97.614487 
z"/>
<path fill="#000000" opacity="1.000000" stroke="none" 
	d="
M158.000000,177.000000 
	C130.535583,177.000000 103.571167,177.000000 76.303589,177.000000 
	C76.303589,126.766891 76.303589,76.718170 76.303589,26.334522 
	C125.171227,26.334522 174.220734,26.334522 223.635254,26.334522 
	C223.635254,43.599483 223.635254,61.140617 223.635254,79.138641 
	C217.488358,77.838470 211.789856,78.721550 206.138367,81.852974 
	C200.590256,84.927116 197.160172,88.410469 197.900696,95.268578 
	C198.416245,100.043037 198.000000,104.918106 198.000000,109.748230 
	C198.000000,119.326714 203.518295,125.740273 213.187271,126.932114 
	C216.596924,127.352402 220.101944,126.999275 223.781021,126.999275 
	C223.781021,143.596313 223.781021,160.024139 223.781021,177.000000 
	C202.005417,177.000000 180.252716,177.000000 158.000000,177.000000 
z"/>
<path fill="#000000" opacity="1.000000" stroke="none" 
	d="
M219.260773,83.086182 
	C224.773895,86.036194 227.810577,89.923607 227.079727,96.259789 
	C226.644547,100.032761 227.010925,103.896973 226.997650,107.720093 
	C226.972366,115.005737 222.607666,119.010445 214.722351,119.000000 
	C207.411850,118.990318 203.023865,114.751419 203.001968,107.663452 
	C202.990677,104.006546 202.999985,100.349579 202.999985,96.692635 
	C203.000015,86.173088 206.218796,82.991745 216.854324,83.000420 
	C217.519196,83.000961 218.184082,83.007126 219.260773,83.086182 
M210.229721,92.250275 
	C210.153183,97.216064 210.103134,102.182449 209.991287,107.147446 
	C209.909821,110.764267 211.784668,112.087128 215.207520,112.029602 
	C218.467606,111.974823 220.046600,110.512146 220.009781,107.230949 
	C219.966995,103.417557 220.248566,99.580078 219.895218,95.799232 
	C219.718216,93.905197 218.789917,90.893387 217.587280,90.552261 
	C215.618103,89.993729 213.147720,91.202209 210.229721,92.250275 
z"/>
<path fill="#000000" opacity="1.000000" stroke="none" 
	d="
M254.999985,93.425964 
	C255.000000,98.363663 255.005035,102.848724 254.998871,107.333763 
	C254.988495,114.876564 250.792175,118.995041 243.121750,118.999992 
	C235.350876,119.005013 231.020401,114.929176 231.001984,107.577255 
	C230.991150,103.258354 230.994904,98.939384 231.001190,94.620461 
	C231.010223,88.405144 235.097687,83.374008 240.432327,83.000427 
	C249.337952,82.376785 253.892090,85.494507 254.999985,93.425964 
M248.000000,95.838440 
	C248.315582,92.062210 247.023193,89.865486 242.791031,89.959145 
	C238.769608,90.048134 237.857300,92.292267 237.970093,95.758827 
	C238.099335,99.731186 237.537521,103.792480 238.216629,107.649521 
	C238.509674,109.313850 240.952332,111.301262 242.794876,111.829842 
	C245.693863,112.661491 247.919037,111.103691 247.983749,107.697922 
	C248.053009,104.054054 247.999771,100.407852 248.000000,95.838440 
z"/>
<path fill="#000000" opacity="1.000000" stroke="none" 
	d="
M283.000000,98.096664 
	C283.000000,101.733170 283.018433,104.887619 282.996216,108.041794 
	C282.948120,114.878342 278.393738,119.003029 270.922974,119.000000 
	C263.436676,118.996964 259.036926,114.905296 259.003601,107.887764 
	C258.983887,103.737427 258.999359,99.586922 259.000153,95.436493 
	C259.001770,86.945984 262.842957,82.995956 271.092865,83.000000 
	C279.102356,83.003922 282.998535,87.134056 283.000000,95.622253 
	C283.000122,96.286331 283.000000,96.950409 283.000000,98.096664 
M266.000031,107.081604 
	C265.814545,111.082352 268.109314,112.164604 271.631775,112.020668 
	C275.084778,111.879578 276.087433,109.914215 276.020721,106.812851 
	C275.935242,102.838036 275.943268,98.858948 276.016632,94.883652 
	C276.083221,91.275955 274.262268,89.926880 270.830048,89.969421 
	C267.580292,90.009720 265.951111,91.413437 265.989868,94.725517 
	C266.034485,98.535942 266.000061,102.347305 266.000031,107.081604 
z"/>
<path fill="#FFFFFF" opacity="1.000000" stroke="none" 
	d="
M210.559235,91.957825 
	C213.147720,91.202209 215.618103,89.993729 217.587280,90.552261 
	C218.789917,90.893387 219.718216,93.905197 219.895218,95.799232 
	C220.248566,99.580078 219.966995,103.417557 220.009781,107.230949 
	C220.046600,110.512146 218.467606,111.974823 215.207520,112.029602 
	C211.784668,112.087128 209.909821,110.764267 209.991287,107.147446 
	C210.103134,102.182449 210.153183,97.216064 210.559235,91.957825 
z"/>
<path fill="#FFFFFF" opacity="1.000000" stroke="none" 
	d="
M248.000000,96.300552 
	C247.999771,100.407852 248.053009,104.054054 247.983749,107.697922 
	C247.919037,111.103691 245.693863,112.661491 242.794876,111.829842 
	C240.952332,111.301262 238.509674,109.313850 238.216629,107.649521 
	C237.537521,103.792480 238.099335,99.731186 237.970093,95.758827 
	C237.857300,92.292267 238.769608,90.048134 242.791031,89.959145 
	C247.023193,89.865486 248.315582,92.062210 248.000000,96.300552 
z"/>
<path fill="#FFFFFF" opacity="1.000000" stroke="none" 
	d="
M266.000000,106.619934 
	C266.000061,102.347305 266.034485,98.535942 265.989868,94.725517 
	C265.951111,91.413437 267.580292,90.009720 270.830048,89.969421 
	C274.262268,89.926880 276.083221,91.275955 276.016632,94.883652 
	C275.943268,98.858948 275.935242,102.838036 276.020721,106.812851 
	C276.087433,109.914215 275.084778,111.879578 271.631775,112.020668 
	C268.109314,112.164604 265.814545,111.082352 266.000000,106.619934 
z"/>
</svg>